<?xml version="1.0" encoding="utf-8"?>
<!-- Generator: Adobe Illustrator 17.0.0, SVG Export Plug-In . SVG Version: 6.00 Build 0)  -->

<!-- width="115px" height="63px" -->

<!DOCTYPE svg PUBLIC "-//W3C//DTD SVG 1.1//EN" "http://www.w3.org/Graphics/SVG/1.1/DTD/svg11.dtd">
<svg version="1.1" id="Layer_1" xmlns="http://www.w3.org/2000/svg" xmlns:xlink="http://www.w3.org/1999/xlink" x="0px" y="0px"
	 width="230px" height="126px" viewBox="0 0 115 63" enable-background="new 0 0 115 63" xml:space="preserve">
<g enable-background="new    ">
	<path fill="#FFFFFF" d="M47.241,15.742c1.71,2.405,2.936,4.983,3.676,7.734c0.739,2.751,1.11,5.584,1.11,8.497
		c0,8.601-2.336,15.11-7.006,19.525c-4.671,4.416-11.306,6.624-19.907,6.624H6.941V46.469h19.075c2.265,0,4.196-0.347,5.792-1.04
		c1.595-0.693,2.901-1.676,3.919-2.948c1.017-1.271,1.757-2.785,2.219-4.543c0.462-1.757,0.694-3.676,0.694-5.757
		s-0.243-3.999-0.729-5.757c-0.485-1.757-1.237-3.271-2.254-4.543c-1.018-1.271-2.324-2.277-3.919-3.017
		c-1.596-0.739-3.503-1.11-5.723-1.11H6.941V6.1h17.202c2.358,0,4.612,0.116,6.763,0.347c2.15,0.232,4.185,0.694,6.104,1.387
		c1.918,0.694,3.733,1.677,5.445,2.948C44.165,12.054,45.76,13.707,47.241,15.742z"/>
	<path fill="#FFFFFF" d="M82.13,58.122c-3.562,0-6.937-0.647-10.127-1.942c-3.19-1.294-5.989-3.086-8.393-5.375
		c-2.405-2.289-4.313-4.994-5.723-8.116c-1.411-3.121-2.116-6.485-2.116-10.092c0-3.746,0.67-7.306,2.012-10.682
		c0.74-1.942,1.827-3.791,3.26-5.549c2.589-3.421,5.676-5.988,9.26-7.699C73.887,6.956,77.853,6.1,82.199,6.1
		c3.652,0,7.086,0.659,10.301,1.977c3.213,1.318,6.022,3.146,8.427,5.48c2.404,2.335,4.301,5.087,5.688,8.254
		c1.387,3.168,2.08,6.602,2.08,10.301c0,3.7-0.693,7.133-2.08,10.3c-1.388,3.168-3.284,5.92-5.688,8.255s-5.226,4.161-8.462,5.479
		C89.228,57.463,85.782,58.122,82.13,58.122z M82.199,17.268c-2.035,0-3.896,0.393-5.584,1.179c-1.688,0.787-3.121,1.85-4.3,3.19
		c-1.18,1.342-2.093,2.891-2.74,4.647c-0.648,1.758-0.971,3.63-0.971,5.619c0,2.035,0.322,3.953,0.971,5.757
		c0.647,1.804,1.571,3.376,2.774,4.717c1.202,1.342,2.658,2.417,4.37,3.226c1.71,0.81,3.606,1.214,5.688,1.214
		c1.987,0,3.815-0.404,5.479-1.214c1.665-0.809,3.087-1.896,4.266-3.261c1.18-1.363,2.092-2.936,2.74-4.717
		c0.647-1.779,0.971-3.617,0.971-5.514c0-1.942-0.323-3.804-0.971-5.584c-0.648-1.78-1.572-3.364-2.774-4.751
		c-1.203-1.387-2.647-2.485-4.335-3.294C86.095,17.673,84.233,17.268,82.199,17.268z"/>
</g>
</svg>
